<svg id="Symbol" xmlns="http://www.w3.org/2000/svg" width="64" height="64" viewBox="0 0 64 64">
  <g id="Path_625" data-name="Path 625" fill="none">
    <path d="M10.323,0H53.677C59.378,0,64,4.146,64,9.259V53.7C64,58.817,62.631,64,51.793,64c-5.343,0-9.189-4.389-20.7-7.225C20.472,54.162,4.411,63.446,0,53.7V9.259C0,4.146,4.622,0,10.323,0Z" stroke="none"/>
    <path d="M 10.32257080078125 5.499996185302734 C 7.708473205566406 5.499996185302734 5.5 7.221511840820312 5.5 9.259227752685547 L 5.5 52.1380615234375 C 5.932807922363281 52.49151992797852 6.766361236572266 52.77089691162109 8.599098205566406 52.77089691162109 C 10.76995849609375 52.77089691162109 13.44904327392578 52.34194183349609 16.28544235229492 51.88778305053711 C 19.65420150756836 51.34839630126953 23.13764190673828 50.79065704345703 26.61458587646484 50.79065704345703 C 28.75044250488281 50.79065704345703 30.64361572265625 51.00106811523438 32.40315628051758 51.43411254882812 C 38.74494171142578 52.99607086181641 43.04339981079102 55.02976989746094 46.18199920654297 56.51471328735352 C 48.93931579589844 57.81925582885742 50.44108581542969 58.5 51.7926139831543 58.5 C 58.5 58.5 58.5 56.79634094238281 58.5 53.70355606079102 L 58.5 9.259227752685547 C 58.5 7.221511840820312 56.29152679443359 5.499996185302734 53.67741394042969 5.499996185302734 L 10.32257080078125 5.499996185302734 M 10.32257080078125 -3.814697265625e-06 L 53.67741394042969 -3.814697265625e-06 C 59.37841415405273 -3.814697265625e-06 64 4.145496368408203 64 9.259227752685547 L 64 53.70355606079102 C 64 58.81728363037109 62.63132858276367 64 51.7926139831543 64 C 46.44915771484375 64 42.60341644287109 59.61074066162109 31.08784103393555 56.77452850341797 C 29.67992782592773 56.42801284790039 28.17422103881836 56.29065322875977 26.61458587646484 56.29065322875977 C 20.68682098388672 56.29065322875977 13.95228958129883 58.27089691162109 8.599105834960938 58.27089691162109 C 4.741237640380859 58.27089691162109 1.602310180664062 57.24282073974609 0 53.70355606079102 L 0 9.259227752685547 C 0 4.145496368408203 4.621570587158203 -3.814697265625e-06 10.32257080078125 -3.814697265625e-06 Z" stroke="none" fill="#7530aa"/>
  </g>
  <text id="R" transform="translate(19 44)" fill="#7530aa" font-size="38" font-family="NotoSansCJKkr-Bold, Noto Sans CJK KR" font-weight="700"><tspan x="0" y="0">R</tspan></text>
</svg>
